<svg width="493" height="149" viewBox="0 0 493 149" fill="none" xmlns="http://www.w3.org/2000/svg">
<ellipse cx="308.5" cy="72" rx="87.5" ry="72" fill="#EFEEF6"/>
<ellipse cx="352" cy="112" rx="110" ry="37" fill="#EFEEF6"/>
<circle cx="207.5" cy="79.5" r="44.5" fill="#EFEEF6"/>
<ellipse cx="147" cy="114" rx="147" ry="25" fill="#EFEEF6"/>
<ellipse cx="16" cy="114.5" rx="16" ry="9.5" fill="#DAD6EE"/>
<ellipse cx="469" cy="123.5" rx="24" ry="9.5" fill="#E6E4F2"/>
<ellipse cx="384" cy="117.5" rx="78" ry="21.5" fill="#E6E4F2"/>
<ellipse cx="333.5" cy="90.5" rx="39.5" ry="33.5" fill="#E6E4F2"/>
<ellipse cx="259.5" cy="85" rx="49.5" ry="39" fill="#E6E4F2"/>
<ellipse cx="203.5" cy="99" rx="49.5" ry="32" fill="#E6E4F2"/>
<ellipse cx="278.5" cy="111.5" rx="39.5" ry="33.5" fill="#DAD6EE"/>
<ellipse cx="323.5" cy="114" rx="39.5" ry="23" fill="#DAD6EE"/>
<ellipse cx="363" cy="129" rx="99" ry="20" fill="#DAD6EE"/>
<ellipse cx="236" cy="116.5" rx="28" ry="27.5" fill="#DAD6EE"/>
<ellipse cx="154" cy="121" rx="147" ry="18" fill="#DAD6EE"/>
</svg>
