<svg width="123" height="150" viewBox="0 0 123 150" fill="none" xmlns="http://www.w3.org/2000/svg">
<ellipse cx="83.637" cy="75.4333" rx="14.6137" ry="19.6436" transform="rotate(27.1135 83.637 75.4333)" fill="#D5D3F0" fill-opacity="0.4"/>
<path d="M62.3813 110.741L69.3795 71.2125L93.518 87.1646L62.3813 110.741Z" fill="#EEEDF9"/>
<ellipse cx="99.6278" cy="100.095" rx="14.6137" ry="19.6436" transform="rotate(70.68 99.6278 100.095)" fill="#E0DFF2" fill-opacity="0.4"/>
<path d="M59.8929 111.028L92.2062 87.2107L98.7021 115.405L59.8929 111.028Z" fill="#F3F2FA"/>
<ellipse cx="81.6804" cy="127.816" rx="13.909" ry="12.3979" transform="rotate(18.2158 81.6804 127.816)" fill="#F1E9CA"/>
<ellipse cx="56.5187" cy="119.093" rx="32.2964" ry="20.8581" transform="rotate(18.2158 56.5187 119.093)" fill="#DBDAED"/>
<circle cx="45.7533" cy="75.3584" r="36.3335" fill="#D6D5EB"/>
<circle cx="55.8459" cy="80.0683" r="14.1297" fill="#F7F7FC"/>
<circle cx="23.5495" cy="71.9942" r="14.1297" fill="#F7F7FC"/>
<circle cx="24.8951" cy="71.9942" r="10.0926" fill="#C2C0E6"/>
<circle cx="25.568" cy="72.667" r="5.38274" fill="#9C99D2"/>
<circle cx="57.1916" cy="81.414" r="10.0926" fill="#C2C0E6"/>
<circle cx="57.8644" cy="82.0868" r="5.38274" fill="#9C99D2"/>
<path d="M32.9692 90.8337C34.5841 95.1399 37.2306 93.5251 38.352 92.1794" stroke="black"/>
<path d="M35.6606 44.4076C32.431 18.0322 15.0268 19.5124 6.72839 23.5495M63.2472 49.7903C71.5456 42.1648 82.4905 22.8766 59.883 6.72842" stroke="black"/>
<circle cx="4.7099" cy="23.5495" r="4.7099" fill="#D6D5EB"/>
<circle cx="55.8459" cy="4.7099" r="4.7099" fill="#D6D5EB"/>
</svg>
