<svg width="1440" height="163" viewBox="0 0 1440 163" fill="none" xmlns="http://www.w3.org/2000/svg">
<rect y="78" width="1440" height="85" fill="url(#paint0_radial_53_2)"/>
<path d="M588.369 36.0719L592 74.7166L578.927 85.458L588.369 36.0719Z" fill="#8281C9"/>
<path d="M573.843 24.0885L585.483 65.6673L578.062 87.6369L573.843 24.0885Z" fill="#9695D9"/>
<path d="M557 44.424L579.012 71.659V88L566.441 71.659L557 44.424Z" fill="#B5B4E7"/>
<path d="M1022 16.5L1017 69.71L1035 84.5L1022 16.5Z" fill="#8281C9"/>
<path d="M1042 0L1025.97 57.25L1036.19 87.5L1042 0Z" fill="#9695D9"/>
<path d="M481.076 52L472.076 73.5914L477.814 85L481.076 52Z" fill="#8A89D1"/>
<path d="M470.802 54.8969L471.463 75.1415L477.411 84.216L470.802 54.8969Z" fill="#BAB9E7"/>
<path d="M485.83 62.9977L483.076 81L477.076 84.595L481.453 73.7963L485.83 62.9977Z" fill="#B1B0E8"/>
<path d="M476.88 55.2304L480.777 69.7472L477.744 85.2727L476.88 55.2304Z" fill="#9D9CDD"/>
<path d="M1065.19 28L1034.88 65.5V88L1052.19 65.5L1065.19 28Z" fill="#B5B4E7"/>
<path d="M982 51L986.162 75.9538L980.062 85.3399L977.98 70.6369L982 51Z" fill="#9A99D0"/>
<path d="M986.167 59L987.375 79.1644L982.062 87.3399L981.629 75.4304L986.167 59Z" fill="#ACABE6"/>
<path d="M992.671 61L989.353 80.9262L982.351 87.7115L984.584 76.0051L992.671 61Z" fill="#B5B4E7"/>
<path d="M970 62L982 78.25V88L975.147 78.25L970 62Z" fill="#B5B4E7"/>
<path d="M178.022 48L173.86 72.9538L179.96 82.3399L182.042 67.6369L178.022 48Z" fill="#9A99D0"/>
<path d="M173.855 56L172.647 76.1644L177.96 84.3399L178.394 72.4304L173.855 56Z" fill="#ACABE6"/>
<path d="M167.351 58L170.669 77.9262L177.671 84.7115L175.439 73.0051L167.351 58Z" fill="#B5B4E7"/>
<path d="M190.022 59L178.022 75.25V85L184.875 75.25L190.022 59Z" fill="#B5B4E7"/>
<defs>
<radialGradient id="paint0_radial_53_2" cx="0" cy="0" r="1" gradientUnits="userSpaceOnUse" gradientTransform="translate(720 78) rotate(89.9999) scale(73 916.19)">
<stop stop-color="#6C6BC2"/>
<stop offset="1" stop-color="#D9D9D9" stop-opacity="0"/>
</radialGradient>
</defs>
</svg>
