<svg width="809" height="604" viewBox="0 0 809 604" fill="none" xmlns="http://www.w3.org/2000/svg">
<rect x="0.534053" y="-1.99613" width="250.721" height="448.81" transform="matrix(-0.522321 -0.852749 0.878357 -0.478006 413.872 429.833)" fill="#DBDAED" stroke="#C9C5DF" stroke-width="3"/>
<line y1="-1.5" x2="263.407" y2="-1.5" transform="matrix(-0.39469 0.918814 -0.934269 -0.35657 672.567 0.319824)" stroke="#C9C5DF" stroke-width="3"/>
<line y1="-1.5" x2="290.638" y2="-1.5" transform="matrix(0.995837 0.0911565 -0.102485 0.994735 279.066 215.848)" stroke="#C9C5DF" stroke-width="3"/>
<rect x="0.534053" y="-1.99613" width="250.721" height="448.81" transform="matrix(-0.522321 -0.852749 0.878357 -0.478006 413.872 429.833)" fill="#DBDAED" stroke="#C9C5DF" stroke-width="3"/>
<line y1="-1.5" x2="263.407" y2="-1.5" transform="matrix(-0.39469 0.918814 -0.934269 -0.35657 672.567 0.319824)" stroke="#C9C5DF" stroke-width="3"/>
<line y1="-1.5" x2="263.45" y2="-1.5" transform="matrix(-0.395038 0.918665 -0.934144 -0.356895 672.567 0.319824)" stroke="#C9C5DF" stroke-width="3"/>
<line y1="-1.5" x2="218.031" y2="-1.5" transform="matrix(-0.992986 -0.118229 0.132822 -0.99114 807.786 215.848)" stroke="#C9C5DF" stroke-width="3"/>
<line y1="-1.5" x2="218.328" y2="-1.5" transform="matrix(0.445366 -0.895349 0.914657 0.40423 412.766 432.093)" stroke="#C9C5DF" stroke-width="3"/>
<line y1="-1.5" x2="293.797" y2="-1.5" transform="matrix(0.995472 0.0950508 -0.106853 0.994275 279.066 215.848)" stroke="#C9C5DF" stroke-width="3"/>
<line x1="395.917" y1="450.485" x2="138.148" y2="599.309" stroke="#D5D3F0" stroke-opacity="0.4" stroke-width="9" stroke-linecap="round"/>
<line x1="263.916" y1="216.485" x2="6.14703" y2="365.309" stroke="#D5D3F0" stroke-opacity="0.4" stroke-width="9" stroke-linecap="round"/>
<line x1="329.222" y1="339.972" x2="197.844" y2="415.823" stroke="#D5D3F0" stroke-opacity="0.4" stroke-width="9" stroke-linecap="round"/>
</svg>
