<svg width="197" height="150" viewBox="0 0 197 150" fill="none" xmlns="http://www.w3.org/2000/svg">
<g filter="url(#filter0_d_112_28)">
<ellipse rx="14.6137" ry="19.6436" transform="matrix(-0.890106 0.455754 0.455754 0.890106 39.363 75.4337)" fill="#D5D3F0" fill-opacity="0.4"/>
<path d="M60.6187 110.741L53.6205 71.2126L29.482 87.1647L60.6187 110.741Z" fill="#EEEDF9"/>
<ellipse rx="14.6137" ry="19.6436" transform="matrix(-0.330843 0.943686 0.943686 0.330843 23.3723 100.095)" fill="#E0DFF2" fill-opacity="0.4"/>
<path d="M63.1071 111.028L30.7938 87.2105L24.2979 115.405L63.1071 111.028Z" fill="#F3F2FA"/>
<ellipse rx="13.909" ry="12.3979" transform="matrix(-0.949886 0.312597 0.312597 0.949886 41.3196 127.816)" fill="#F1E9CA"/>
<ellipse rx="32.2964" ry="20.8581" transform="matrix(-0.949886 0.312597 0.312597 0.949886 66.4813 119.093)" fill="#DBDAED"/>
<circle r="36.3335" transform="matrix(-1 0 0 1 77.2467 75.3584)" fill="#D6D5EB"/>
<circle r="14.1297" transform="matrix(-1 0 0 1 67.1541 80.0682)" fill="#F7F7FC"/>
<circle r="14.1297" transform="matrix(-1 0 0 1 99.4505 71.994)" fill="#F7F7FC"/>
<circle r="10.0926" transform="matrix(-1 0 0 1 98.1049 71.994)" fill="#C2C0E6"/>
<circle r="5.38274" transform="matrix(-1 0 0 1 97.432 72.6669)" fill="#9C99D2"/>
<circle r="10.0926" transform="matrix(-1 0 0 1 65.8084 81.4139)" fill="#C2C0E6"/>
<circle r="5.38274" transform="matrix(-1 0 0 1 65.1356 82.0868)" fill="#9C99D2"/>
<path d="M90.0308 90.834C88.4159 95.1402 85.7694 93.5254 84.648 92.1797" stroke="black"/>
<path d="M87.3394 44.4077C90.569 18.0323 107.973 19.5125 116.272 23.5496M59.7528 49.7904C51.4544 42.1649 40.5095 22.8767 63.117 6.72852" stroke="black"/>
<circle r="4.7099" transform="matrix(-1 0 0 1 118.29 23.5493)" fill="#D6D5EB"/>
<circle r="4.7099" transform="matrix(-1 0 0 1 67.1541 4.7099)" fill="#D6D5EB"/>
</g>
<path d="M114.294 100.163C114.832 101.853 120.281 101.888 124.594 101.89C127.825 101.895 140.481 102.493 146.817 102.696C148.527 102.751 150.972 102.922 153.381 101.656C155.521 100.526 162.498 94.7449 158.93 83.9262C155.31 72.9429 146.93 71.5985 143.251 72.2669C141.086 72.6596 138.55 74.6383 137.338 75.6806C132.22 80.0848 123.866 88.6313 120.532 91.9681C118.079 94.4304 113.76 98.4882 114.294 100.163V100.163Z" fill="#FFC107"/>
<path d="M135.844 77.0293C135.521 77.8959 135.055 79.3328 134.411 82.2177C133.966 84.1966 133.732 86.3785 133.675 87.8659C133.5 92.3377 135 94.8731 136.667 97.1243C139.501 100.948 141.899 102.535 141.899 102.535L138.219 102.355C138.219 102.355 136.528 101.093 134.561 98.6434C132.688 96.3077 131.1 93.0946 131.102 88.2554C131.105 86.1581 131.419 84.2703 131.768 82.82C132.203 81.0238 132.585 80.0679 132.585 80.0679L135.844 77.0293Z" fill="#FF8F00"/>
<path d="M127.504 84.9925C127.504 84.9925 126.435 88.2871 127.173 93.419C128.042 99.4243 131.9 102.142 131.9 102.142L128.564 101.989C128.564 101.989 125.885 99.5751 124.806 94.1324C124.134 90.7381 125.026 87.4721 125.026 87.4721L127.504 84.9925Z" fill="#FF8F00"/>
<path d="M121.395 91.1318C121.395 91.1318 120.842 94.1469 121.441 96.8702C122.153 100.119 124.156 101.901 124.156 101.901L121.567 101.85C121.567 101.85 120.099 100.75 119.37 97.6632C118.816 95.3179 119.351 93.1706 119.351 93.1706L121.395 91.1318Z" fill="#FF8F00"/>
<path opacity="0.44" d="M117.044 97.4132C117.049 97.1524 117.163 96.9075 117.362 96.7434L141.42 77.0936L139.903 85.5925L118.368 98.1712C117.78 98.5284 117.034 98.0983 117.044 97.4132V97.4132Z" fill="#FFFDE7"/>
<path d="M139.688 88.5842C142.282 97.9316 149.176 100.131 152.129 99.452C155.09 98.7699 159.52 93.7469 156.898 84.5211C154.149 74.8556 146.483 73.6696 144.229 74.4297C141.974 75.1898 137.306 80.0084 139.688 88.5842V88.5842Z" fill="url(#paint0_linear_112_28)"/>
<path d="M158.023 100.489C156.755 97.7699 155.5 97.5645 153.723 97.4894C151.432 97.3903 148.137 96.5718 144.685 93.2717L147.305 90.876C149.355 92.8325 151.303 93.2561 153.244 93.0685C155.74 92.8303 159.155 92.5009 161.689 97.9445C162.746 100.215 164.074 102.015 165.586 102.183C166.684 102.31 167.849 101.129 168.63 100.119C168.701 100.03 168.873 99.7596 169.021 99.5187C170.073 97.8645 172.231 94.2419 175.971 93.6193C179.969 92.9542 183.152 94.4393 183.152 94.4393L181.058 100.43C179.695 99.5307 178.538 99.3535 177.457 99.4278C173.382 99.7182 172.974 107.945 166.855 107.919C160.961 107.91 158.813 102.179 158.023 100.489V100.489Z" fill="#03A9F4"/>
<path d="M143.609 84.8782L142.397 82.0388C148.216 79.5518 148.673 75.942 149.005 73.3144C149.071 72.7842 149.136 72.2824 149.239 71.8222C149.603 70.1914 150.136 68.8736 150.761 67.7974C150.145 65.2831 150.391 63.0654 150.408 62.9157C150.777 59.7965 152.678 57.4748 155.373 55.7217C160.829 52.1591 166.469 54.791 166.469 54.791L166.001 60.7045C164.598 59.9794 159.874 57.863 157.375 59.4616C154.22 61.4736 154.591 63.7978 154.584 64.0397C155.147 63.7472 155.672 63.5481 156.121 63.4128C159.372 62.4456 161.506 63.0846 162.724 63.7933C164.094 64.5904 165.054 65.9152 165.43 67.5284C165.838 69.2971 165.469 71.1768 164.433 72.558C163.425 73.9053 161.842 74.7041 159.975 74.8091C156.714 74.9945 154.634 73.7901 153.406 72.6266C153.4 72.6646 153.387 72.7053 153.381 72.7434C153.321 73.008 153.27 73.3933 153.214 73.8404C152.836 76.8674 152.466 81.7805 143.609 84.8782V84.8782ZM155.543 68.5092C155.728 68.8408 155.942 69.1454 156.189 69.4065C157.009 70.2801 158.171 70.6587 159.732 70.569C160.65 70.5181 160.934 70.136 161.028 70.0102C161.309 69.6329 161.413 69.0329 161.287 68.4889C161.177 68.0108 160.946 67.6805 160.584 67.4652C159.893 67.0668 158.706 67.0681 157.326 67.4823C156.666 67.6826 156.071 68.0305 155.543 68.5092Z" fill="#F44336"/>
<path d="M151.582 89.5522L148.639 88.0796C148.639 88.0796 153.787 80.7432 158.998 81.5382C159.974 81.6896 161.033 81.8742 162.044 82.1762C162.646 82.3519 163.595 82.6367 164.108 82.6773C164.56 81.9707 164.691 80.8628 164.844 79.6074C164.96 78.6326 165.078 77.6294 165.367 76.6073C165.934 74.6155 167.193 73.2094 168.914 72.639C171.012 71.9519 173.573 72.6149 175.95 74.4606C177.305 75.514 178.077 76.78 178.756 77.892C179.726 79.4843 180.325 80.3425 182.583 79.9876C185.316 79.5558 185.159 72.8013 185.192 68.959L191.631 69.2279C191.617 71.1502 191.313 80.9338 186.834 84.5079C185.326 85.7099 183.503 86.1218 181.564 85.6908C177.345 84.7623 175.802 82.2304 174.676 80.384C174.143 79.5098 173.655 78.7907 173.019 78.2368C168.595 74.4013 172.215 85.2329 167.304 87.0507C164.36 88.1376 159.22 86.388 158.867 86.3169C155.364 85.606 151.582 89.5522 151.582 89.5522V89.5522Z" fill="#F48FB1"/>
<path d="M150.756 67.7952C150.172 68.8087 149.835 69.4174 149.468 70.9179C150.336 72.5035 153.211 73.8452 153.211 73.8452C153.268 73.3982 153.314 73.0106 153.378 72.7482C153.384 72.7101 153.398 72.6695 153.404 72.6314C151.161 69.808 150.756 67.7952 150.756 67.7952V67.7952Z" fill="#C92B27"/>
<path d="M142.569 69.7323L138.741 64.9825L142.88 62.5647L145.57 66.9589L142.569 69.7323Z" fill="#FFC107"/>
<path d="M138.398 59.5792C136.023 58.0558 134.444 54.7002 134.275 54.3232L138.13 52.5624C138.586 53.5525 139.685 55.3688 140.688 56.0123L138.398 59.5792Z" fill="#FB8C00"/>
<path d="M145.858 55.2682L142.767 52.3707C143.78 51.2887 144.534 49.9625 144.938 48.5321L149.015 49.692C148.426 51.7672 147.334 53.695 145.858 55.2682V55.2682Z" fill="#03A9F4"/>
<path d="M169.973 63.0459L174.107 63.9758L172.88 69.4332L168.745 68.5033L169.973 63.0459Z" fill="#FB8C00"/>
<path d="M178.731 68.5618L177.392 64.5409C179.386 63.8755 180.503 62.3097 180.512 62.2905L184.015 64.6792C183.826 64.9592 182.073 67.4499 178.731 68.5618V68.5618Z" fill="#FFC107"/>
<path d="M173.297 84.0366L177.14 84.5535L176.575 88.7534L172.732 88.2366L173.297 84.0366Z" fill="#FB8C00"/>
<path d="M159.837 115.43L156.231 113.198C157.028 111.916 156.793 109.777 156.687 109.278L160.834 108.407C160.924 108.817 161.633 112.521 159.837 115.43V115.43Z" fill="#F44336"/>
<path d="M173.063 115.673C171.728 114.787 170.3 114.016 168.825 113.392L170.488 109.491C172.199 110.22 173.859 111.111 175.406 112.143L173.063 115.673Z" fill="#FB8C00"/>
<path d="M165.433 118.55L169.406 117.076L171.408 122.475L167.435 123.948L165.433 118.55Z" fill="#F48FB1"/>
<path d="M168.833 90.5757L170.127 95.0426L165.66 96.3368L164.366 91.8699L168.833 90.5757Z" fill="#F44336"/>
<defs>
<filter id="filter0_d_112_28" x="0.210083" y="0" width="126.79" height="149.334" filterUnits="userSpaceOnUse" color-interpolation-filters="sRGB">
<feFlood flood-opacity="0" result="BackgroundImageFix"/>
<feColorMatrix in="SourceAlpha" type="matrix" values="0 0 0 0 0 0 0 0 0 0 0 0 0 0 0 0 0 0 127 0" result="hardAlpha"/>
<feOffset dy="4"/>
<feGaussianBlur stdDeviation="2"/>
<feComposite in2="hardAlpha" operator="out"/>
<feColorMatrix type="matrix" values="0 0 0 0 0 0 0 0 0 0 0 0 0 0 0 0 0 0 0.25 0"/>
<feBlend mode="normal" in2="BackgroundImageFix" result="effect1_dropShadow_112_28"/>
<feBlend mode="normal" in="SourceGraphic" in2="effect1_dropShadow_112_28" result="shape"/>
</filter>
<linearGradient id="paint0_linear_112_28" x1="160.183" y1="85.6672" x2="141.894" y2="87.573" gradientUnits="userSpaceOnUse">
<stop offset="0.0235" stop-color="#8F4700"/>
<stop offset="1" stop-color="#703E2D"/>
</linearGradient>
</defs>
</svg>
